<svg class="icon" viewBox="0 0 1040 1024" xmlns="http://www.w3.org/2000/svg" width="203.125" height="200"><defs><style/></defs><path d="M936.648 587.301C896.77 329.748 818.08 80.007 556.358 80.007 76.795 79.952 62 853.635 62 853.635h177.462s128.86 88.817 215.484 88.817c86.62 0 63.394-88.817 63.394-88.817h88.701s-6.358 88.817 63.334 88.817c101.413 0 202.77-73.967 215.484-88.817 12.71-14.794 76.104 0 76.104 0s.955-96.464-25.315-266.334zM608.277 725.334c-218.579 0-240.796-127.738-240.796-285.344s107.826-285.4 240.796-285.4c155.189 0 240.796 127.794 240.796 285.4s-11.137 285.344-240.796 285.344zm0 0"/><path d="M455.618 373.731c0 35.008 28.385 63.394 63.394 63.394s63.393-28.385 63.393-63.394-28.385-63.392-63.393-63.392-63.394 28.384-63.394 63.392zm0 0M607.768 621.051c0 17.522 17.025 31.726 38.024 31.726 21.002 0 38.026-14.204 38.026-31.726 0-17.517-17.025-31.721-38.026-31.721-21 0-38.024 14.204-38.024 31.721zm0 0M683.819 373.731c0 35.008 25.532 63.394 57.034 63.394 31.497 0 57.034-28.385 57.034-63.394s-25.537-63.392-57.034-63.392c-31.502 0-57.034 28.384-57.034 63.392zm0 0"/></svg>