<svg class="icon" viewBox="0 0 1024 1024" xmlns="http://www.w3.org/2000/svg" width="200" height="200"><defs><style/></defs><path d="M840.19 201.47H691.473v-37.179c0-63.206-48.334-111.539-111.54-111.539H431.215c-63.205 0-111.538 48.333-111.538 111.54v37.179H170.96c-22.308 0-37.18 14.871-37.18 37.18 0 22.308 14.872 37.18 37.18 37.18h669.232c22.308 0 37.18-14.872 37.18-37.18-.001-22.307-14.873-37.18-37.18-37.18zm-446.155 0v-37.179c0-22.307 14.871-37.18 37.18-37.18h148.717c22.308 0 37.18 14.871 37.18 37.18v37.18H394.036zM765.831 350.19H245.317c-22.308 0-37.18 14.871-37.18 37.18v520.514c0 22.307 14.872 37.18 37.18 37.18h520.514c22.308 0 37.18-14.871 37.18-37.18V387.37c0-22.309-14.873-37.18-37.18-37.18zM468.395 759.166c0 22.308-14.872 37.18-37.18 37.18-22.309 0-37.18-14.871-37.18-37.18V536.088c0-22.308 14.871-37.18 37.18-37.18 22.307 0 37.18 14.872 37.18 37.18v223.078zm148.718 0c0 22.308-14.872 37.18-37.181 37.18-22.308 0-37.18-14.871-37.18-37.18V536.088c0-22.308 14.872-37.18 37.18-37.18s37.18 14.872 37.18 37.18v223.078z"/></svg>