<?xml version="1.0" standalone="no"?><!DOCTYPE svg PUBLIC "-//W3C//DTD SVG 1.1//EN" "http://www.w3.org/Graphics/SVG/1.1/DTD/svg11.dtd"><svg t="1585662920244" class="icon" viewBox="0 0 1024 1024" version="1.1" xmlns="http://www.w3.org/2000/svg" p-id="3188" xmlns:xlink="http://www.w3.org/1999/xlink" width="64" height="64"><defs><style type="text/css"></style></defs><path d="M995.92267852 301.72653037L809.09653333 127.67990518c-13.95674075-12.99797333-33.15636148-19.60011852-52.90211555-18.19230815-1.85685333-0.14563555-3.67729778-0.21845333-5.43706075-0.21845333h-99.52976592l-6.97837036 3.6166163c-36.88220445 19.11466667-83.92248889 29.63683555-132.47981038 29.63683555s-95.60974222-10.52216889-132.47981037-29.63683555l-6.97837037-3.6166163h-99.54190222c-25.37699555 0-48.19323259 12.90088297-59.98971259 33.38695112L28.11373037 314.70023111C15.35848297 326.56952889 8.3437037 342.35885037 8.3437037 359.15548445c0 16.79663408 7.01477925 32.57381925 19.77002667 44.45525333l134.91920593 125.70775704c11.29889185 10.51003259 25.88672 16.83304297 41.5910874 18.14376296v303.7714963c0 35.00107852 30.57133037 63.48496592 68.13316741 63.48496592h477.98802964c37.57397333 0 68.13316741-28.48388741 68.1331674-63.48496592V534.53710222c15.89854815-1.21362963 30.68055703-7.56091259 42.08867555-18.18017185l134.93134222-125.70775704c26.33576297-24.50318222 26.33576297-64.40732445 0.0242726-88.92264296z m0 0" p-id="3189"></path></svg>