<svg class="icon" viewBox="0 0 1024 1024" xmlns="http://www.w3.org/2000/svg" width="200" height="200"><defs><style/></defs><path d="M512 230.75c-155.328 0-281.25 125.939-281.25 281.25 0 155.346 125.922 281.25 281.25 281.25S793.25 667.346 793.25 512c0-155.311-125.922-281.25-281.25-281.25zm119.33 347.533c14.63 14.648 14.63 38.416 0 53.027-14.648 14.648-38.397 14.648-53.046 0L512 565.027l-66.284 66.283c-14.648 14.648-38.397 14.648-53.046 0-14.63-14.611-14.63-38.379 0-53.027L458.963 512l-66.293-66.284c-14.63-14.648-14.63-38.379 0-53.027 14.648-14.648 38.397-14.648 53.046 0L512 458.972l66.284-66.284c14.648-14.648 38.397-14.648 53.046 0 14.63 14.648 14.63 38.379 0 53.027L565.037 512l66.293 66.283z"/></svg>