<svg class="icon" viewBox="0 0 1024 1024" xmlns="http://www.w3.org/2000/svg" width="200" height="200"><defs><style/></defs><path d="M231.888 349.302a122.981 122.981 0 11122.98-122.98 123.124 123.124 0 01-122.98 122.98z"/><path d="M231.888 129.23a97.09 97.09 0 11-97.09 97.091 97.207 97.207 0 0197.09-97.09m0-51.782A148.872 148.872 0 0083.016 226.321a148.872 148.872 0 00148.872 148.872A148.872 148.872 0 00380.76 226.321 148.872 148.872 0 00231.888 77.45z"/><path d="M381.485 303.774a122.981 122.981 0 10245.962 0 122.981 122.981 0 10-245.962 0z"/><path d="M504.466 206.683a97.09 97.09 0 11-97.09 97.09 97.207 97.207 0 0197.09-97.09m0-51.781a148.872 148.872 0 00-148.872 148.872 148.872 148.872 0 00148.872 148.871 148.872 148.872 0 00148.872-148.871 148.872 148.872 0 00-148.872-148.872z"/><path d="M660.9499999999999 385.433a122.981 122.981 0 10245.962 0 122.981 122.981 0 10-245.962 0z"/><path d="M783.93 288.343a97.09 97.09 0 11-97.09 97.09 97.207 97.207 0 0197.09-97.09m0-51.782a148.872 148.872 0 000 297.744 148.872 148.872 0 000-297.744z"/><path d="M952.143 535.988h-51.782v63.626h-90.54V400.268H758.04v199.346H530.357V318.61h-51.782v281.005H257.779V241.157h-51.782v358.457h-82.358V474.627H71.857V946.55h51.782V651.396H900.36v217.482h51.782v-332.89z"/></svg>