<?xml version="1.0" standalone="no"?><!DOCTYPE svg PUBLIC "-//W3C//DTD SVG 1.1//EN" "http://www.w3.org/Graphics/SVG/1.1/DTD/svg11.dtd"><svg t="1585662897209" class="icon" viewBox="0 0 1024 1024" version="1.1" xmlns="http://www.w3.org/2000/svg" p-id="3051" xmlns:xlink="http://www.w3.org/1999/xlink" width="64" height="64"><defs><style type="text/css"></style></defs><path d="M875.432137 148.567863c-198.090484-198.090484-523.981279-198.090484-722.071763 0s-198.090484 523.981279 0 722.071763 523.981279 198.090484 722.071763 0S1073.522621 353.048362 875.432137 148.567863zM690.121685 646.98908c12.780031 12.780031 12.780031 31.950078 0 44.730109-12.780031 12.780031-31.950078 12.780031-44.730109 0L511.201248 557.528861l-134.190328 134.190328c-12.780031 12.780031-31.950078 12.780031-44.730109 0-12.780031-12.780031-12.780031-31.950078 0-44.730109L466.471139 512.798752 332.280811 378.608424C319.50078 365.828393 319.50078 346.658346 332.280811 333.878315s31.950078-12.780031 44.730109 0L511.201248 468.068643l134.190328-134.190328c12.780031-12.780031 31.950078-12.780031 44.730109 0 12.780031 12.780031 12.780031 31.950078 0 44.730109L555.931357 512.798752 690.121685 646.98908z" p-id="3052"></path></svg>