<?xml version="1.0" standalone="no"?><!DOCTYPE svg PUBLIC "-//W3C//DTD SVG 1.1//EN" "http://www.w3.org/Graphics/SVG/1.1/DTD/svg11.dtd"><svg t="1585662863718" class="icon" viewBox="0 0 1024 1024" version="1.1" xmlns="http://www.w3.org/2000/svg" p-id="2914" xmlns:xlink="http://www.w3.org/1999/xlink" width="64" height="64"><defs><style type="text/css"></style></defs><path d="M986.84434773 443.67334514L600.19593216 41.13812366c-24.01707805-24.97645795-56.14580053-38.74657507-90.55188309-38.74657507-34.40841159 0-66.53596899 13.77128221-90.57982692 38.74657507L32.41697166 443.67334514c-39.90155605 41.5478693-34.75770027 77.46753536-28.16313344 92.45899889 4.70258802 10.65795698 20.57192903 39.91319893 66.29030343 39.91319894l56.67671837 0 0 309.66406258c0 70.28383517 50.47102578 136.49496633 122.21488697 136.49496632l65.03286442 0 99.57051278 0L414.03912533 949.43030841 414.03912533 694.49160704c0-35.14308153-5.33712896-54.72419613 30.57322326-54.72419613l65.03286442 0 65.03286443 0c35.88473742 0 30.57205931 19.58111459 30.57205931 54.72419613L605.25013675 949.43030841l0 72.77426233 99.54373404 0 65.03286443 0c71.76947598 0 122.24050176-66.21113117 122.24050176-136.49496633L892.06723811 576.04554183l56.66391154 0c45.72885219 0 61.58655147-29.25524195 66.30078123-39.91319893C1021.61136185 521.1408805 1026.74241081 485.2212133 986.84434773 443.67334514z" p-id="2915"></path></svg>