<svg class="icon" viewBox="0 0 1024 1024" xmlns="http://www.w3.org/2000/svg" width="200" height="200"><defs><style/></defs><path d="M806.4 1017.6h-95.086a89.783 89.783 0 01-89.6-89.783V770.011a16.64 16.64 0 00-16.457-16.457H418.743a16.64 16.64 0 00-16.457 16.457v157.806a89.783 89.783 0 01-89.6 89.783H217.6a89.783 89.783 0 01-89.6-89.783V695.954a52.846 52.846 0 00-34.743-16.457A89.783 89.783 0 0123.59 533.211L442.88 39.497a89.6 89.6 0 01138.789 0l418.742 493.714a89.783 89.783 0 01-69.668 146.286 48.457 48.457 0 00-34.926 18.286v230.4A89.783 89.783 0 01806.4 1017.6zM418.743 680.411h186.514a89.783 89.783 0 0189.6 89.6v157.806a16.64 16.64 0 0016.457 16.64H806.4a16.64 16.64 0 0016.457-16.64V695.954c0-54.857 64-89.6 107.886-89.6a15.909 15.909 0 0014.994-9.508 15.726 15.726 0 00-1.828-17.189L525.349 85.943a17.189 17.189 0 00-13.349-6.4 16.274 16.274 0 00-12.8 6.217L79.909 579.474a15.36 15.36 0 00-1.646 16.823 15.909 15.909 0 0014.994 9.509c43.886 0 107.886 34.925 107.886 89.6v232.411a16.64 16.64 0 0016.457 16.64h95.086a16.64 16.64 0 0016.457-16.64V770.011a89.783 89.783 0 0189.6-89.6z"/></svg>