<svg class="icon" viewBox="0 0 1870 1024" xmlns="http://www.w3.org/2000/svg" width="365.234" height="200"><defs><style/></defs><path d="M807.294 496.669c-12.43-11.602-24.86-24.861-36.463-38.12h-436.45l-37.291 38.12H155.45c37.292-38.12 71.27-74.514 101.033-110.148-34.736-49.653-66.227-101.862-95.991-156.487h113.463c14.02 25.62 28.936 50.482 44.681 75.343 22.375-32.32 42.264-63.741 60.495-97.718 2.486-4.972 1.658-9.944-.828-14.917-3.315-4.972-8.287-7.458-13.26-7.458l-209.592-1.657v-45.51h303.995c15.746 0 29.834 7.458 38.052 20.718 9.944 13.259 11.602 28.935 5.8 43.852-30.592 70.44-74.514 142.468-129.208 209.592h357.792c-67.055-85.356-126.653-188.046-181.347-298.263h122.579c11.67 24.101 23.203 47.236 36.462 69.61l21.547-50.55H842.1c-21.546 53.865-43.093 106.005-68.713 154.07 8.287 12.43 15.745 24.86 24.86 36.462 9.945-20.717 19.06-42.264 28.177-63.81H937.4c-20.718 53.866-43.922 106.005-69.542 154.899 22.375 28.175 45.578 55.523 70.44 82.041H807.293zM157.108 847.072h132.524l-37.292-99.375h125.065l38.12 99.375h264.218l36.463-99.375H842.1l-36.394 99.375h131.695v47.236H157.108v-47.236zm60.495-278.306c0-30.662 24.862-55.523 54.695-55.523H822.21c29.833 0 53.866 24.861 53.866 55.523V669.8c0 31.49-24.033 55.523-53.866 55.523H272.298c-29.833 0-54.695-24.033-54.695-55.523V568.766zm533.409 23.204c0-16.574-14.088-31.49-31.491-31.49H374.988c-17.403 0-31.49 14.916-31.49 31.49v54.694c0 17.403 14.087 31.49 31.49 31.49H719.52c17.403 0 31.49-14.087 31.49-31.49V591.97zM1055.422 277.201h545.01v-67.056c0-17.403-14.088-31.49-31.491-31.49h-543.353v-47.237h645.214c29.834 0 55.523 25.69 55.523 55.523v236.871h40.607v47.236h-329.617v370.223c0 30.662-24.86 55.523-54.694 55.523h-156.556v-47.236h53.866c17.403 0 31.49-14.088 31.49-31.49v-347.02h-327.13v-47.236h616.21v-99.375h-545.01v-47.236zm140.81 410c-16.574 77.83-35.634 148.2-67.056 211.182h-127.551c29.833-66.228 54.694-135.839 68.782-211.181h125.825zm-125.894-38.88l-47.236-137.495h125.894l47.236 137.496h-125.894zm468.77 0l47.236-137.495h125.893l-47.236 137.496h-125.893zM1665 687.202c14.917 75.343 38.88 144.954 68.714 211.182h-127.552c-31.49-62.913-50.55-133.353-67.124-211.181H1665z"/></svg>