<svg class="icon" viewBox="0 0 1024 1024" xmlns="http://www.w3.org/2000/svg" width="200" height="200"><defs><style/></defs><path d="M694.83 592.92l-2.41-1.38c.79.46 1.58.94 2.41 1.38zm36.43-71.33c1.28.72 2.56 1.44 3.82 2.17a40.88 40.88 0 00-3.82-2.17z"/><path d="M694.83 592.92a40 40 0 0040.25-69.16c-1.26-.73-2.54-1.45-3.82-2.17a444.83 444.83 0 00-68.19-31.11A239.54 239.54 0 00752 304c0-132.55-107.45-240-240-240S272 171.45 272 304a239.49 239.49 0 0088.91 186.46C187.83 552.46 64 717.93 64 912.34v7.58c0 1.06 0 2.1.13 3.13a40 40 0 0080-2.85v-.28c0-.71 0-1.41-.06-2.11v-5.48c0-203.24 164.76-368 368-368a366.28 366.28 0 01180.42 47.2zM512 464a160 160 0 11160-160 160 160 0 01-160 160zm411.33 416H644.67c-20.25 0-36.67 17.91-36.67 40s16.42 40 36.67 40h278.66c20.25 0 36.67-17.91 36.67-40s-16.42-40-36.67-40zM608 808.5c0 22.09 16.42 40 36.67 40h214.66c20.25 0 36.67-17.91 36.67-40s-16.42-40-36.67-40H644.67c-20.25 0-36.67 17.91-36.67 40z"/><path d="M608 680c0 22.09 16.42 40 36.67 40h150.66c20.25 0 36.67-17.91 36.67-40s-16.42-40-36.67-40H644.67c-20.25 0-36.67 17.91-36.67 40z"/></svg>