<?xml version="1.0" standalone="no"?><!DOCTYPE svg PUBLIC "-//W3C//DTD SVG 1.1//EN" "http://www.w3.org/Graphics/SVG/1.1/DTD/svg11.dtd"><svg t="1584631543990" class="icon" viewBox="0 0 1024 1024" version="1.1" xmlns="http://www.w3.org/2000/svg" p-id="5548" xmlns:xlink="http://www.w3.org/1999/xlink" width="200" height="200"><defs><style type="text/css"></style></defs><path d="M631.240992 657.297983c106.385983 51.699306 218.095074 146.448926 263.599603 256.067703-58.359537 47.205554-65.95914 53.104132-134.541752 110.634314-66.07762-126.908298-146.059636-196.861884-255.492231-224.873785-64.207339 82.597025-168.731504 179.056132-332.258381 223.621289C136.107372 945.75286 126.188959 924.020364 101.553719 865.914711c130.80119-30.246083 178.455273-71.476893 242.459504-193.874513-4.586843-148.505388 33.639669-294.565025 129.108628-352.992264 49.617455 16.223207 134.47405 56.734678 157.822942 64.105785-3.317421 15.08919-6.406347 51.690843 33.656595 60.458314 30.415339 6.651769 113.080066 5.974744 182.068893-56.463868C888.992793 452.049455 922.446281 514.792727 922.446281 514.792727S790.367207 645.66162 634.092959 604.58314c-1.108628 20.327669-1.861818 26.83557-2.851967 52.714843z m18.533553-366.016528c-79.880463 0-146.668959-65.197488-146.668958-145.636496C503.105587 65.20595 569.894083 0 649.774545 0c79.872 0 147.676033 65.20595 147.676034 145.644959s-67.804033 145.636496-147.676034 145.636496z" fill="#2c2c2c" p-id="5549"></path></svg>