<svg class="icon" viewBox="0 0 1870 1024" xmlns="http://www.w3.org/2000/svg" width="365.234" height="200"><defs><style/></defs><path d="M154.691 898.452c42.195-101.862 69.542-189.635 84.459-307.242h123.407c-16.574 115.052-43.92 225.27-83.63 307.242H154.691zm71.2-599.636l-52.968-170.643h125.065l52.139 170.643H225.89zm11.601 233.487l-54.694-183.005h125.065l53.797 183.005H237.492zm170.644 70.509v-47.236h184.662V320.293H390.733v-47.166h533.408v47.236H719.59v235.282h186.389v47.236H719.59v235.213h220.297v47.236h-564.07v-47.236h216.981V602.812H408.136zm186.32-360.347l-33.08-131.695h127.552l32.32 131.695H594.455zM984.153 495.08h31.56V188.6c0-30.593 24.032-55.454 54.625-55.454h226.927c30.662 0 54.694 24.792 54.694 55.454V495.08h48.824V188.599c0-30.593 25.69-55.454 55.523-55.454h226.927c30.593 0 55.523 24.792 55.523 55.454V495.08h28.107v47.236h-28.107v301.51c0 29.833-24.861 55.453-55.523 55.453h-123.408v-47.236h30.593c13.26 0 24.032-10.773 24.032-24.032V542.317h-90.259v179.69c0 73.755-13.19 135.838-30.593 177.204H1371.02c16.574-40.606 29.833-101.861 29.833-177.204v-179.69h-48.824v301.51c0 29.833-24.032 55.453-54.694 55.453h-122.51v-47.236h30.593c12.43 0 23.203-10.773 23.203-24.032V542.317h-90.328v179.69c0 73.755-12.5 135.838-29.833 177.204h-122.58c16.575-40.606 29.903-101.861 29.903-177.204v-179.69h-31.56V495.08zm154.139 0h90.328V204.345c0-13.259-10.773-24.032-23.203-24.032h-43.162c-14.088 0-24.032 10.704-24.032 24.032v290.737zm385.968 0h90.26V204.345c0-13.259-10.705-24.032-24.033-24.032h-43.023c-13.19 0-23.204 10.704-23.204 24.032v290.737z"/></svg>