<svg class="icon" viewBox="0 0 1024 1024" xmlns="http://www.w3.org/2000/svg" width="200" height="200"><defs><style/></defs><path d="M676.053 99.84a128 128 0 01106.368 56.747l4.48 7.253L950.997 448a128 128 0 014.267 119.979L950.997 576 786.901 860.16a128 128 0 01-102.314 63.744l-8.534.256H347.947a128 128 0 01-106.368-56.747l-4.48-7.253L72.96 576a128 128 0 01-4.267-119.979L72.96 448l164.096-284.16a128 128 0 01102.315-63.744l8.533-.256h328.107zm0 85.333H347.947a42.667 42.667 0 00-34.176 17.11l-2.774 4.224-164.096 284.16a42.667 42.667 0 00-2.474 37.546l2.474 5.12 164.096 284.16a42.667 42.667 0 0031.915 21.035l5.035.299h328.106a42.667 42.667 0 0034.176-17.11l2.774-4.224 164.096-284.16a42.667 42.667 0 002.474-37.546l-2.474-5.12-164.096-284.16a42.667 42.667 0 00-31.915-21.035l-5.035-.299zM512 298.667a213.333 213.333 0 110 426.666 213.333 213.333 0 010-426.666zM512 384a128 128 0 100 256 128 128 0 000-256z"/></svg>