<?xml version="1.0" standalone="no"?><!DOCTYPE svg PUBLIC "-//W3C//DTD SVG 1.1//EN" "http://www.w3.org/Graphics/SVG/1.1/DTD/svg11.dtd"><svg t="1588753168676" class="icon" viewBox="0 0 1024 1024" version="1.1" xmlns="http://www.w3.org/2000/svg" p-id="3004" xmlns:xlink="http://www.w3.org/1999/xlink" width="64" height="64"><defs><style type="text/css"></style></defs><path d="M92.53811683 581.88601106c19.27432854 94.71463373 66.78409024 179.92466393 137.34616096 246.37072432a42.31338151 42.31338151 0 0 0 35.1948709 11.08207612 42.3862899 42.3862899 0 0 0 30.56187377-20.7192404l55.10549089-95.43708964a42.41943008 42.41943008 0 0 0-5.30242875-49.67050142 277.20434756 277.20434756 0 0 1-61.34910076-111.41065629 42.39954597 42.39954597 0 0 0-40.84858557-31.07223254H134.06276206a42.30675348 42.30675348 0 0 0-32.81540599 15.58251253 42.26698526 42.26698526 0 0 0-8.70923924 35.27440732zM653.25670218 778.0758752a42.33989364 42.33989364 0 0 0-45.76658825-20.25527786 272.99554474 272.99554474 0 0 1-137.81675151-5.4747577 42.4393142 42.4393142 0 0 0-49.07397819 19.35386498l-54.09802941 93.75356852a42.39291794 42.39291794 0 0 0-3.14168904 35.57929698 42.23384508 42.23384508 0 0 0 25.17328053 25.33898144c51.24797396 18.92967068 105.37914357 28.53369477 160.82929235 28.53369477 45.84612467 0 91.10898218-6.62140791 134.4961055-19.70515088a42.49896652 42.49896652 0 0 0 27.1749474-24.9611834 42.37303383 42.37303383 0 0 0-2.71749474-36.81873971l-55.05909464-95.34429714zM848.0414227 130.58967122a42.33326561 42.33326561 0 0 0-27.13517918-9.84926142c-2.45900134 0-4.96439893 0.25849341-7.42340027 0.6826877a42.37966187 42.37966187 0 0 0-29.25615068 20.54691145l-54.21733408 93.82647691a42.46582634 42.46582634 0 0 0 7.76805814 52.18252705 272.69728311 272.69728311 0 0 1 76.8454488 127.11247346 42.41943008 42.41943008 0 0 0 40.88835378 31.16502504h109.19689229a42.40617402 42.40617402 0 0 0 32.77563777-15.53611627 42.23384508 42.23384508 0 0 0 8.74237942-35.24126715c-20.83854503-103.26480011-77.01114971-197.3431424-158.18470599-264.88945677zM711.03329156 67.03343449a42.41280205 42.41280205 0 0 0-27.1749474-24.96781143 465.7785984 465.7785984 0 0 0-134.4961055-19.74491909c-55.45014876 0-109.58131837 9.59739606-160.82929235 28.52706673a42.4393142 42.4393142 0 0 0-22.03159149 60.97793074l54.09802941 93.74031246a42.4393142 42.4393142 0 0 0 49.07397819 19.35386497 272.80995973 272.80995973 0 0 1 79.69550427-11.84430024c19.40026124 0 38.97285139 2.1209715 58.12124724 6.32977433a42.39291794 42.39291794 0 0 0 45.76658825-20.20888161l55.06572267-95.35755323a42.33989364 42.33989364 0 0 0 2.71086671-36.80548363zM964.7081115 531.02246318h-109.19689229a42.37303383 42.37303383 0 0 0-40.88835378 31.15839701 272.8232158 272.8232158 0 0 1-76.8454488 127.1191015 42.37966187 42.37966187 0 0 0-7.76805814 52.12950274l54.21733408 93.86624513a42.33326561 42.33326561 0 0 0 29.25615068 20.5535395c2.45900134 0.42419429 4.96439893 0.63629145 7.42340027 0.63629144a42.30012543 42.30012543 0 0 0 27.13517918-9.80286517c81.17355628-67.59271062 137.34616097-161.63128469 158.18470599-264.88282874a42.220589 42.220589 0 0 0-8.74237942-35.24126714 42.28686937 42.28686937 0 0 0-32.77563777-15.53611627zM101.24072803 430.66737085a42.32663758 42.32663758 0 0 0 32.815406 15.58251251h109.19689227a42.40617402 42.40617402 0 0 0 40.84858557-31.07223252 277.23085971 277.23085971 0 0 1 61.34910076-111.45042451 42.35314973 42.35314973 0 0 0 5.30242877-49.63073321L295.6476505 158.65940347a42.55199081 42.55199081 0 0 0-30.56187377-20.7590086 42.33989364 42.33989364 0 0 0-6.1574454-0.42419429c-10.69765003 0-21.14343469 4.07624211-29.03742551 11.54603862C159.32220706 215.46167157 111.81244538 300.66507372 92.53811683 395.38633548a42.31338151 42.31338151 0 0 0 8.7026112 35.28103537z" fill="#2B3B94" p-id="3005"></path></svg>